<svg width="786" height="175" viewBox="0 0 786 175" fill="none" xmlns="http://www.w3.org/2000/svg">
<path d="M0 179.115L49.0366 38.1797H76.3839L125.421 179.115H94.7726L86.2855 152.247H39.135L30.6479 179.115H0ZM46.6791 128.208H78.7414L62.7103 78.7161L46.6791 128.208Z" fill="#0B4FFF"/>
<path d="M205.105 115.01L244.24 38.1797H271.587V179.115H244.24V91.4427L213.592 153.661H196.146L165.97 92.3854V179.115H138.623V38.1797H165.498L205.105 115.01Z" fill="#0B4FFF"/>
<path d="M284.318 179.115L333.354 38.1797H360.702L409.738 179.115H379.091L370.603 152.247H323.453L314.966 179.115H284.318ZM330.997 128.208H363.059L347.028 78.7161L330.997 128.208Z" fill="#0B4FFF"/>
<path d="M422.941 179.115V38.1797H472.92C504.983 38.1797 527.143 54.6771 527.143 99.4557V117.839C527.143 162.617 504.983 179.115 472.92 179.115H422.941ZM498.382 117.839V99.4557C498.382 74.9453 491.781 62.6901 472.92 62.6901H451.703V155.076H472.92C491.781 155.076 498.382 141.878 498.382 117.839Z" fill="#0B4FFF"/>
<path d="M600.227 181C568.636 181 546.475 161.674 546.475 118.781V98.9844C546.475 55.6198 568.636 36.7656 600.227 36.7656C632.289 36.7656 654.45 55.6198 654.45 98.9844V118.781C654.45 161.674 631.818 181 600.227 181ZM574.765 118.31C574.765 145.177 583.724 156.49 600.227 156.49C616.729 156.49 625.688 145.177 625.688 118.31V98.513C625.688 71.6458 616.729 60.3333 600.227 60.3333C583.724 60.3333 574.765 71.6458 574.765 98.513V118.31Z" fill="#0B4FFF"/>
<path d="M754.409 179.115L728.948 123.966H706.316V179.115H677.554V38.1797H728.005C760.539 38.1797 780.813 52.7917 780.813 81.0729C780.813 99.9271 771.855 112.654 756.767 118.781L786 178.643H754.409V179.115ZM725.647 99.4557C742.621 99.4557 752.523 95.6849 752.523 81.0729C752.523 66.4609 742.621 62.2187 725.647 62.2187H706.316V99.4557H725.647Z" fill="#0B4FFF"/>
<path d="M600.227 27.3385C607.778 27.3385 613.9 21.2186 613.9 13.6693C613.9 6.11994 607.778 0 600.227 0C592.675 0 586.553 6.11994 586.553 13.6693C586.553 21.2186 592.675 27.3385 600.227 27.3385Z" fill="#0B4FFF"/>
</svg>
